# xmcd CD database file
#
# Track frame offsets:
#	180
#	14121
#	29237
#	47980
#	63507
#	84053
#	101949
#	116235
#	135470
#
# Disc length: 2231 seconds
#
# Revision: 0
# Processed by: cddbd v1.4PL0 Copyright (c) Steve Scherf et al.
# Submitted via: CDex 1.40Beta9
#
DISCID=8308b509
DTITLE=Sean Chambers - Strong Temptation
DYEAR=1995
DGENRE=Blues
TTITLE0=Strong Temptation
TTITLE1=Me and My Guitar
TTITLE2=Mean Town Blues
TTITLE3=Danger Zone
TTITLE4=Crazy For Loving You
TTITLE5=Shame, Shame, Shame
TTITLE6=Dixie
TTITLE7=Mojo Down The Road
TTITLE8=You Was Wrong
EXTD=YEAR: 1995 ID3G: 0
EXTT0=
EXTT1=
EXTT2=
EXTT3=
EXTT4=
EXTT5=
EXTT6=
EXTT7=
EXTT8=
PLAYORDER=
